<svg id="Layer_1" data-name="Layer 1" xmlns="http://www.w3.org/2000/svg" viewBox="0 0 122.88 115.66"><defs><style>.cls-1{fill:#121212;}.cls-2{fill:#d8453e;}</style></defs><title>ban-user</title><path class="cls-1" d="M37.26,55.09c-2-3.22-5.82-7.6-5.82-11.38a6.09,6.09,0,0,1,4.09-5.53c-.19-3.2-.32-6.44-.32-9.65,0-1.9,0-3.81.11-5.7A13.44,13.44,0,0,1,36,20,20.24,20.24,0,0,1,45,8.47a25.74,25.74,0,0,1,4.91-2.35C53,5,51.54.07,55,0c8-.2,21.08,6.77,26.19,12.3a18.61,18.61,0,0,1,5.22,12.45l-.33,14a4.6,4.6,0,0,1,3.36,2.87C90.48,46,85.9,51.47,83.78,55c-2,3.24-9.45,12.06-9.46,12.14A2.9,2.9,0,0,0,75,68.74a18.48,18.48,0,0,0,2.47,2.74,30.77,30.77,0,0,0-5.12,35H0C0,74.61,34.19,84.72,45.81,68.74c.58-.85.84-1.3.83-1.67,0-.2-8.61-10.75-9.38-12Z"/><path class="cls-2" d="M99.82,69.54a23.06,23.06,0,1,1-16.3,6.75,23,23,0,0,1,16.3-6.75ZM113,85.42l-20.31,20.3a14.62,14.62,0,0,0,2.88,1.21,15,15,0,0,0,14.88-3.76l0,0A15,15,0,0,0,113,85.42ZM86.7,99.78,107,79.47a14.71,14.71,0,0,0-7.18-1.83A15,15,0,0,0,85.49,96.89a14.46,14.46,0,0,0,1.21,2.89Z"/></svg>