<svg width="43" height="43" viewBox="0 0 43 43" fill="none" xmlns="http://www.w3.org/2000/svg">
<path d="M32.25 12.8283C32.1425 12.8104 32.0171 12.8104 31.9096 12.8283C29.4371 12.7387 27.4662 10.7141 27.4662 8.20582C27.4662 5.64373 29.5267 3.58331 32.0887 3.58331C34.6508 3.58331 36.7112 5.66165 36.7112 8.20582C36.6933 10.7141 34.7225 12.7387 32.25 12.8283Z" stroke="white" stroke-width="2" stroke-linecap="round" stroke-linejoin="round"/>
<path d="M30.4046 25.8717C32.8592 26.2838 35.5646 25.8538 37.4638 24.5817C39.99 22.8975 39.99 20.1384 37.4638 18.4542C35.5467 17.1821 32.8054 16.7521 30.3508 17.1821" stroke="white" stroke-width="2" stroke-linecap="round" stroke-linejoin="round"/>
<path d="M10.6962 12.8283C10.8037 12.8104 10.9292 12.8104 11.0367 12.8283C13.5092 12.7387 15.48 10.7141 15.48 8.20582C15.48 5.64373 13.4196 3.58331 10.8575 3.58331C8.29541 3.58331 6.23499 5.66165 6.23499 8.20582C6.2529 10.7141 8.22374 12.7387 10.6962 12.8283Z" stroke="white" stroke-width="2" stroke-linecap="round" stroke-linejoin="round"/>
<path d="M12.5417 25.8717C10.0871 26.2838 7.38168 25.8538 5.48252 24.5817C2.95627 22.8975 2.95627 20.1384 5.48252 18.4542C7.3996 17.1821 10.1408 16.7521 12.5954 17.1821" stroke="white" stroke-width="2" stroke-linecap="round" stroke-linejoin="round"/>
<path d="M21.5 26.2121C21.3925 26.1942 21.2671 26.1942 21.1596 26.2121C18.6871 26.1225 16.7162 24.0979 16.7162 21.5896C16.7162 19.0275 18.7767 16.9671 21.3387 16.9671C23.9008 16.9671 25.9612 19.0454 25.9612 21.5896C25.9433 24.0979 23.9725 26.1404 21.5 26.2121Z" stroke="white" stroke-width="2" stroke-linecap="round" stroke-linejoin="round"/>
<path d="M16.2862 31.8558C13.76 33.54 13.76 36.2992 16.2862 37.9833C19.1529 39.9004 23.8471 39.9004 26.7137 37.9833C29.24 36.2992 29.24 33.54 26.7137 31.8558C23.865 29.9567 19.1529 29.9567 16.2862 31.8558Z" stroke="white" stroke-width="2" stroke-linecap="round" stroke-linejoin="round"/>
</svg>
