<svg width="43" height="43" viewBox="0 0 43 43" fill="none" xmlns="http://www.w3.org/2000/svg">
<path d="M20.5325 24.5996C23.313 24.5996 25.5671 22.3455 25.5671 19.565C25.5671 16.7845 23.313 14.5304 20.5325 14.5304C17.752 14.5304 15.4979 16.7845 15.4979 19.565C15.4979 22.3455 17.752 24.5996 20.5325 24.5996Z" stroke="white" stroke-width="1.5" stroke-linecap="round" stroke-linejoin="round"/>
<path d="M29.8313 36.1917C29.8313 32.0171 25.6746 28.6129 20.5325 28.6129C15.3904 28.6129 11.2338 31.9992 11.2338 36.1917" stroke="white" stroke-width="1.5" stroke-linecap="round" stroke-linejoin="round"/>
<path d="M37.625 22.3958C37.625 31.8021 30.0104 39.4167 20.6042 39.4167C11.1979 39.4167 3.58334 31.8021 3.58334 22.3958C3.58334 12.9896 11.1979 5.375 20.6042 5.375C22.9513 5.375 25.1908 5.84082 27.2333 6.70082C27.0004 7.41748 26.875 8.17 26.875 8.95833C26.875 10.3021 27.2513 11.5742 27.9142 12.6492C28.2725 13.2583 28.7383 13.8137 29.2758 14.2795C30.53 15.4262 32.1963 16.125 34.0417 16.125C34.83 16.125 35.5825 15.9995 36.2813 15.7487C37.1413 17.7912 37.625 20.0488 37.625 22.3958Z" stroke="white" stroke-width="2" stroke-linecap="round" stroke-linejoin="round"/>
<path d="M41.2083 8.95835C41.2083 9.53169 41.1367 10.0871 40.9933 10.6246C40.8321 11.3413 40.5454 12.04 40.1692 12.6492C39.3092 14.1004 37.9296 15.2291 36.2812 15.7487C35.5825 15.9996 34.83 16.125 34.0417 16.125C32.1962 16.125 30.53 15.4262 29.2758 14.2796C28.7383 13.8137 28.2725 13.2583 27.9142 12.6492C27.2513 11.5742 26.875 10.3021 26.875 8.95835C26.875 8.17002 27.0004 7.4175 27.2333 6.70084C27.5738 5.66167 28.1471 4.73006 28.8996 3.95964C30.2075 2.61589 32.035 1.79169 34.0417 1.79169C36.1558 1.79169 38.0729 2.70547 39.3629 4.17463C40.5096 5.44672 41.2083 7.13085 41.2083 8.95835Z" stroke="white" stroke-width="2" stroke-miterlimit="10" stroke-linecap="round" stroke-linejoin="round"/>
<path d="M36.7112 8.92249H31.3721" stroke="white" stroke-width="2" stroke-miterlimit="10" stroke-linecap="round" stroke-linejoin="round"/>
<path d="M34.0417 6.3067V11.6638" stroke="white" stroke-width="2" stroke-miterlimit="10" stroke-linecap="round" stroke-linejoin="round"/>
</svg>
